<svg width="116" height="116" viewBox="0 0 116 116" fill="none" xmlns="http://www.w3.org/2000/svg">
<ellipse cx="58" cy="57.728" rx="58" ry="57.5014" fill="#0FAAA5"/>
<path fill-rule="evenodd" clip-rule="evenodd" d="M47.8213 39.0977C46.1741 39.0976 44.8005 39.0976 43.71 39.2429C42.5591 39.3963 41.52 39.7338 40.6849 40.5616C39.8499 41.3895 39.5095 42.4197 39.3548 43.5608C39.2082 44.6418 39.2082 46.0035 39.2083 47.6366V47.8257C39.2082 49.4587 39.2082 50.8205 39.3548 51.9015C39.5095 53.0426 39.8499 54.0728 40.6849 54.9006C41.52 55.7285 42.5591 56.066 43.71 56.2194C44.8005 56.3647 46.174 56.3647 47.8212 56.3646H48.0119C49.6591 56.3647 51.0327 56.3647 52.1231 56.2194C53.2741 56.066 54.3132 55.7285 55.1483 54.9006C55.9833 54.0728 56.3237 53.0426 56.4784 51.9015C56.625 50.8205 56.625 49.4587 56.6249 47.8257V47.6366C56.625 46.0036 56.625 44.6418 56.4784 43.5608C56.3237 42.4197 55.9833 41.3895 55.1483 40.5616C54.3132 39.7338 53.2741 39.3963 52.1231 39.2429C51.0327 39.0976 49.6592 39.0976 48.012 39.0977H47.8213ZM42.6295 42.4895C42.8684 42.2526 43.2305 42.0577 44.0765 41.945C44.962 41.8269 46.1492 41.824 47.9166 41.824C49.6839 41.824 50.8711 41.8269 51.7567 41.945C52.6027 42.0577 52.9648 42.2526 53.2037 42.4895C53.4426 42.7263 53.6392 43.0853 53.7529 43.924C53.872 44.802 53.8749 45.979 53.8749 47.7311C53.8749 49.4833 53.872 50.6603 53.7529 51.5382C53.6392 52.377 53.4426 52.736 53.2037 52.9728C52.9648 53.2097 52.6027 53.4046 51.7567 53.5173C50.8711 53.6354 49.6839 53.6383 47.9166 53.6383C46.1492 53.6383 44.962 53.6354 44.0765 53.5173C43.2305 53.4046 42.8684 53.2097 42.6295 52.9728C42.3906 52.736 42.194 52.377 42.0802 51.5382C41.9612 50.6603 41.9583 49.4833 41.9583 47.7311C41.9583 45.979 41.9612 44.802 42.0802 43.924C42.194 43.0853 42.3906 42.7263 42.6295 42.4895Z" fill="white"/>
<path fill-rule="evenodd" clip-rule="evenodd" d="M67.9879 59.091C66.3407 59.0909 64.9671 59.0909 63.8767 59.2362C62.7258 59.3896 61.6866 59.7271 60.8516 60.555C60.0166 61.3828 59.6762 62.413 59.5214 63.5541C59.3748 64.6351 59.3749 65.9969 59.3749 67.6299V67.819C59.3749 69.452 59.3748 70.8138 59.5214 71.8948C59.6762 73.0359 60.0166 74.0661 60.8516 74.894C61.6866 75.7218 62.7258 76.0593 63.8767 76.2127C64.9671 76.358 66.3406 76.358 67.9878 76.3579H68.1786C69.8257 76.358 71.1994 76.358 72.2898 76.2127C73.4408 76.0593 74.4799 75.7218 75.3149 74.894C76.15 74.0661 76.4903 73.0359 76.6451 71.8948C76.7917 70.8138 76.7916 69.4521 76.7916 67.8191V67.6299C76.7916 65.997 76.7917 64.6351 76.6451 63.5541C76.4903 62.413 76.15 61.3828 75.3149 60.555C74.4799 59.7271 73.4408 59.3896 72.2898 59.2362C71.1994 59.0909 69.8258 59.0909 68.1786 59.091H67.9879ZM62.7961 62.4828C63.0351 62.2459 63.3971 62.051 64.2431 61.9383C65.1287 61.8202 66.3159 61.8173 68.0833 61.8173C69.8506 61.8173 71.0378 61.8202 71.9234 61.9383C72.7694 62.051 73.1315 62.2459 73.3704 62.4828C73.6093 62.7196 73.8059 63.0786 73.9196 63.9173C74.0387 64.7953 74.0416 65.9723 74.0416 67.7245C74.0416 69.4766 74.0387 70.6536 73.9196 71.5316C73.8059 72.3703 73.6093 72.7293 73.3704 72.9661C73.1315 73.203 72.7694 73.3979 71.9234 73.5106C71.0378 73.6287 69.8506 73.6316 68.0833 73.6316C66.3159 73.6316 65.1287 73.6287 64.2431 73.5106C63.3971 73.3979 63.0351 73.203 62.7961 72.9661C62.5572 72.7293 62.3606 72.3703 62.2469 71.5316C62.1278 70.6536 62.1249 69.4766 62.1249 67.7245C62.1249 65.9723 62.1278 64.7953 62.2469 63.9173C62.3606 63.0786 62.5572 62.7196 62.7961 62.4828Z" fill="white"/>
<path fill-rule="evenodd" clip-rule="evenodd" d="M47.8213 59.091H48.0119C49.6591 59.0909 51.0327 59.0909 52.1231 59.2362C53.2741 59.3896 54.3132 59.7271 55.1483 60.555C55.9833 61.3828 56.3237 62.413 56.4784 63.5541C56.625 64.6351 56.625 65.9969 56.6249 67.6299V67.819C56.625 69.452 56.625 70.8138 56.4784 71.8948C56.3237 73.0359 55.9833 74.0661 55.1483 74.894C54.3132 75.7218 53.2741 76.0593 52.1231 76.2127C51.0327 76.358 49.6592 76.358 48.012 76.3579H47.8213C46.1741 76.358 44.8005 76.358 43.71 76.2127C42.5591 76.0593 41.52 75.7218 40.6849 74.894C39.8499 74.0661 39.5095 73.0359 39.3548 71.8948C39.2082 70.8138 39.2082 69.452 39.2083 67.819V67.6299C39.2082 65.9969 39.2082 64.6351 39.3548 63.5541C39.5095 62.413 39.8499 61.3828 40.6849 60.555C41.52 59.7271 42.5591 59.3896 43.71 59.2362C44.8005 59.0909 46.174 59.0909 47.8213 59.091ZM44.0765 61.9383C43.2305 62.051 42.8684 62.2459 42.6295 62.4828C42.3906 62.7196 42.194 63.0786 42.0802 63.9173C41.9612 64.7953 41.9583 65.9723 41.9583 67.7245C41.9583 69.4766 41.9612 70.6536 42.0802 71.5316C42.194 72.3703 42.3906 72.7293 42.6295 72.9661C42.8684 73.203 43.2305 73.3979 44.0765 73.5106C44.962 73.6287 46.1492 73.6316 47.9166 73.6316C49.6839 73.6316 50.8711 73.6287 51.7567 73.5106C52.6027 73.3979 52.9648 73.203 53.2037 72.9661C53.4426 72.7293 53.6392 72.3703 53.7529 71.5316C53.872 70.6536 53.8749 69.4766 53.8749 67.7245C53.8749 65.9723 53.872 64.7953 53.7529 63.9173C53.6392 63.0786 53.4426 62.7196 53.2037 62.4828C52.9648 62.2459 52.6027 62.051 51.7567 61.9383C50.8711 61.8202 49.6839 61.8173 47.9166 61.8173C46.1492 61.8173 44.962 61.8202 44.0765 61.9383Z" fill="white"/>
<path fill-rule="evenodd" clip-rule="evenodd" d="M67.9879 39.0977C66.3407 39.0976 64.9671 39.0976 63.8767 39.2429C62.7258 39.3963 61.6866 39.7338 60.8516 40.5616C60.0166 41.3895 59.6762 42.4197 59.5214 43.5608C59.3748 44.6418 59.3749 46.0036 59.3749 47.6366V47.8257C59.3749 49.4587 59.3748 50.8205 59.5214 51.9015C59.6762 53.0426 60.0166 54.0728 60.8516 54.9006C61.6866 55.7285 62.7258 56.066 63.8767 56.2194C64.9671 56.3647 66.3407 56.3647 67.9879 56.3646H68.1786C69.8258 56.3647 71.1994 56.3647 72.2898 56.2194C73.4408 56.066 74.4799 55.7285 75.3149 54.9006C76.15 54.0728 76.4903 53.0426 76.6451 51.9015C76.7917 50.8205 76.7916 49.4587 76.7916 47.8257V47.6366C76.7916 46.0036 76.7917 44.6418 76.6451 43.5608C76.4903 42.4197 76.15 41.3895 75.3149 40.5616C74.4799 39.7338 73.4408 39.3963 72.2898 39.2429C71.1994 39.0976 69.8258 39.0976 68.1786 39.0977H67.9879ZM62.7961 42.4895C63.0351 42.2526 63.3971 42.0577 64.2431 41.945C65.1287 41.8269 66.3159 41.824 68.0833 41.824C69.8506 41.824 71.0378 41.8269 71.9234 41.945C72.7694 42.0577 73.1315 42.2526 73.3704 42.4895C73.6093 42.7263 73.8059 43.0853 73.9196 43.924C74.0387 44.802 74.0416 45.979 74.0416 47.7311C74.0416 49.4833 74.0387 50.6603 73.9196 51.5382C73.8059 52.377 73.6093 52.736 73.3704 52.9728C73.1315 53.2097 72.7694 53.4046 71.9234 53.5173C71.0378 53.6354 69.8506 53.6383 68.0833 53.6383C66.3159 53.6383 65.1287 53.6354 64.2431 53.5173C63.3971 53.4046 63.0351 53.2097 62.7961 52.9728C62.5572 52.736 62.3606 52.377 62.2469 51.5382C62.1278 50.6603 62.1249 49.4833 62.1249 47.7311C62.1249 45.979 62.1278 44.802 62.2469 43.924C62.3606 43.0853 62.5572 42.7263 62.7961 42.4895Z" fill="white"/>
<path fill-rule="evenodd" clip-rule="evenodd" d="M78.4225 39.2057C79.0757 39.7108 79.1922 40.6453 78.6827 41.2929L70.8827 51.2069C70.6044 51.5607 70.1797 51.771 69.7272 51.7791C69.2746 51.7872 68.8426 51.5924 68.5514 51.2488L64.3515 46.2918C63.8186 45.6629 63.9009 44.7248 64.5352 44.1966C65.1696 43.6683 66.1157 43.7499 66.6486 44.3788L69.6568 47.9292L76.3172 39.4637C76.8267 38.8161 77.7693 38.7006 78.4225 39.2057Z" fill="white"/>
</svg>
