<svg width="116" height="116" viewBox="0 0 116 116" fill="none" xmlns="http://www.w3.org/2000/svg">
<ellipse cx="58" cy="57.728" rx="58" ry="57.5014" fill="#0FAAA5"/>
<path d="M48.081 30.1049C47.2461 30.325 46.4278 30.9936 46.0145 31.7926C45.4773 32.8526 45.469 34.8502 46.0063 35.9346C46.3121 36.5462 46.9238 37.1332 47.585 37.443L48.1306 37.6958L51.6849 37.7366L55.2392 37.7773L56.8593 38.609C58.7191 39.5711 58.9918 39.6363 59.4217 39.2042L59.6696 38.9678L59.6448 35.6819L59.62 32.396L59.3803 31.9068C58.9422 31.0344 58.1735 30.3821 57.2726 30.1212C56.8841 30.007 56.2311 29.9907 52.6437 29.9989C49.6019 29.9989 48.362 30.0315 48.081 30.1049ZM57.0246 31.8905C57.223 31.9965 57.504 32.2411 57.6362 32.4286L57.8842 32.7792L57.909 34.9807C57.9256 36.1874 57.9008 37.1658 57.8677 37.1495C57.8346 37.1332 57.3056 36.8723 56.7105 36.5706L55.6111 36.0243H52.156C48.734 36.0243 48.7009 36.0243 48.3372 35.8368C48.1388 35.739 47.8578 35.5188 47.7256 35.3476C47.4776 35.0377 47.4693 35.0133 47.4445 33.9859C47.4115 32.8526 47.4941 32.5428 47.9405 32.1351C48.3951 31.7111 48.4116 31.7111 52.685 31.703H56.6609L57.0246 31.8905Z" fill="white"/>
<path d="M67.7958 31.9474C64.8283 32.7138 62.9768 35.6572 63.5967 38.617C63.8778 39.9623 64.5473 41.063 65.6136 41.9273C65.7706 42.0578 65.8616 42.1801 65.8037 42.1964C65.7541 42.2127 65.3822 42.4165 64.9854 42.653C63.5719 43.4765 62.1916 45.0256 61.5882 46.4688C61.1087 47.6022 60.9765 48.2544 60.9269 49.7384L60.8773 51.1082H59.9763C59.0836 51.1082 59.0671 51.1082 58.8274 51.3446C58.4885 51.6789 58.4885 52.1437 58.8274 52.5106L59.0671 52.7796L67.928 52.8041C73.4413 52.8123 76.7724 52.853 76.7559 52.9019C76.7394 52.9427 74.4828 56.302 71.7303 60.3543L66.7295 67.7414H63.9522H61.1749L61.1253 66.1759C61.1005 65.3116 61.0178 64.2843 60.9517 63.9011C60.5632 61.773 59.5465 59.8732 57.9677 58.324C57.0585 57.4272 56.1989 56.8156 55.0995 56.302C54.7027 56.1144 54.3804 55.9351 54.3969 55.9106C54.4052 55.878 54.6945 55.6415 55.0334 55.3725C56.6783 54.0924 57.6206 52.2578 57.7363 50.1297C57.8437 48.0588 57.0998 46.1264 55.612 44.6669C52.7768 41.8621 48.1314 41.8702 45.288 44.675C43.8993 46.0448 43.1802 47.7734 43.1885 49.7628C43.1885 51.312 43.5522 52.535 44.3788 53.7499C44.8251 54.4104 45.7344 55.3399 46.2468 55.6578C46.594 55.8698 46.6932 56.0003 46.5196 56.0003C46.346 56.0003 45.2219 56.571 44.6185 56.9624C42.7917 58.1447 41.3865 59.8324 40.5682 61.8545C40.0062 63.2325 39.8987 63.8603 39.8491 65.9231L39.8078 67.7332L38.6092 67.7577C37.4107 67.7821 37.4107 67.7821 37.2123 68.0104C36.9147 68.3529 36.9313 68.8992 37.2536 69.2172L37.4934 69.4536H52.4875C64.1423 69.4455 67.5147 69.4292 67.6552 69.3476C67.7544 69.2905 70.4243 65.4339 73.5901 60.7701C79.1447 52.5677 79.3348 52.2741 79.3348 51.9072C79.3348 51.5892 79.2935 51.4995 79.0786 51.3202C78.8637 51.1408 78.7479 51.1082 78.2685 51.1082H77.7065L77.6569 49.8199C77.5907 47.8794 77.1526 46.4688 76.2021 45.0827C75.4582 44.0064 74.2348 42.9383 73.1768 42.4328L72.6809 42.1964L73.3834 41.4952C74.5407 40.3537 75.0531 39.1062 75.0614 37.4918C75.0697 36.4644 74.9209 35.8366 74.458 34.9234C73.7058 33.415 72.2841 32.2898 70.6557 31.9148C69.9035 31.7354 68.5314 31.7517 67.7958 31.9474ZM70.2838 33.6189C72.9536 34.3037 74.1604 37.4265 72.6313 39.6851C72.2014 40.3211 71.7468 40.7043 71.0112 41.0549C69.4159 41.8131 67.6966 41.5196 66.4319 40.2721C65.7954 39.6443 65.4896 39.0491 65.2995 38.1278C65.1838 37.5489 65.1838 37.4265 65.3078 36.8313C65.4813 35.9589 65.7706 35.3882 66.3658 34.7685C67.3742 33.7004 68.8786 33.2601 70.2838 33.6189ZM70.8624 43.3705C72.78 43.8271 74.4332 45.1806 75.2928 46.9743C75.6813 47.806 75.8632 48.6621 75.921 49.9422L75.9706 51.1082H69.3084H62.6379V50.1461C62.6462 49.6242 62.6958 48.9149 62.7536 48.5806C63.0512 46.9743 63.9522 45.5149 65.2334 44.5527C66.9031 43.2971 68.8538 42.8894 70.8624 43.3705ZM51.8097 44.4712C53.4959 44.8952 55.0334 46.2487 55.645 47.8549C56.1162 49.1024 56.1079 50.4722 55.6202 51.7278C54.992 53.3259 53.5125 54.6305 51.8097 55.0708C51.0906 55.2665 49.7929 55.2583 49.082 55.0708C47.5942 54.6713 46.189 53.5542 45.5442 52.2497C45.04 51.2386 44.9243 50.7005 44.9656 49.5672C45.0318 48.0261 45.4781 47.0069 46.5609 45.9225C47.9579 44.5364 49.9003 43.9983 51.8097 44.4712ZM51.7519 57.0195C53.6365 57.2967 55.1987 58.0631 56.6204 59.4085C57.6784 60.4113 58.3645 61.4632 58.8604 62.8248C59.2241 63.8114 59.3316 64.6023 59.3316 66.2411V67.7414H50.4459H41.5601V66.3227C41.5601 65.4421 41.6097 64.6512 41.6841 64.2272C42.3371 60.5337 45.3459 57.6065 49.082 57.0195C50.0243 56.8727 50.7765 56.8727 51.7519 57.0195Z" fill="white"/>
</svg>
