<svg width="116" height="116" viewBox="0 0 116 116" fill="none" xmlns="http://www.w3.org/2000/svg">
<ellipse cx="58" cy="57.728" rx="58" ry="57.5014" fill="#0FAAA5"/>
<path fill-rule="evenodd" clip-rule="evenodd" d="M56.1667 40.9153C47.8134 40.9153 41.0417 47.6288 41.0417 55.9103C41.0417 64.1918 47.8134 70.9053 56.1667 70.9053C64.5201 70.9053 71.2917 64.1918 71.2917 55.9103C71.2917 47.6288 64.5201 40.9153 56.1667 40.9153ZM38.2917 55.9103C38.2917 46.1231 46.2947 38.189 56.1667 38.189C66.0388 38.189 74.0417 46.1231 74.0417 55.9103C74.0417 65.6975 66.0388 73.6317 56.1667 73.6317C46.2947 73.6317 38.2917 65.6975 38.2917 55.9103ZM72.9561 71.8161C72.5318 71.7841 72.1782 72.1347 72.2105 72.5554C72.211 72.5578 72.2181 72.6043 72.2536 72.7361C72.2953 72.8908 72.3572 73.0963 72.4518 73.4094C72.5386 73.6965 72.595 73.8826 72.6414 74.0208C72.6889 74.1622 72.7052 74.1893 72.6981 74.1761C72.8914 74.534 73.3533 74.6495 73.6946 74.4254C73.6821 74.4336 73.7095 74.4175 73.8189 74.3153C73.9259 74.2155 74.0645 74.0782 74.2783 73.8662C74.4922 73.6542 74.6306 73.5168 74.7313 73.4107C74.8168 73.3208 74.8426 73.2867 74.8442 73.2848C75.0672 72.9475 74.9516 72.4931 74.5938 72.3011C74.5917 72.3002 74.5527 72.2824 74.4343 72.2433C74.2949 72.1974 74.1072 72.1415 73.8175 72.0554C73.5017 71.9616 73.2945 71.9002 73.1385 71.8589C73.0055 71.8236 72.9585 71.8167 72.9561 71.8161ZM69.4701 72.7834C69.2956 70.6812 71.0657 68.9263 73.1862 69.0993C73.5527 69.1292 73.9962 69.2616 74.4747 69.4044C74.5185 69.4175 74.5626 69.4306 74.6069 69.4438C74.6469 69.4557 74.6867 69.4674 74.7263 69.4791C75.1659 69.6092 75.5783 69.7311 75.8891 69.8961C77.6782 70.8459 78.2557 73.1154 77.1352 74.7929C76.9405 75.0842 76.6359 75.3855 76.3111 75.7068C76.2818 75.7357 76.2524 75.7648 76.2229 75.794C76.1934 75.8233 76.164 75.8525 76.1348 75.8815C75.8108 76.2035 75.5069 76.5055 75.213 76.6985C73.521 77.8094 71.2318 77.2368 70.2738 75.4631C70.1074 75.155 69.9844 74.7462 69.8532 74.3103C69.8414 74.2711 69.8295 74.2316 69.8176 74.192C69.8043 74.148 69.791 74.1044 69.7779 74.061C69.6338 73.5865 69.5003 73.1468 69.4701 72.7834Z" fill="white"/>
</svg>
